<?xml version="1.0" encoding="iso-8859-1"?>
<!-- Generator: Adobe Illustrator 19.0.0, SVG Export Plug-In . SVG Version: 6.00 Build 0)  -->
<svg version="1.1" id="Layer_1" xmlns="http://www.w3.org/2000/svg" xmlns:xlink="http://www.w3.org/1999/xlink" x="0px" y="0px"
	 viewBox="0 0 511.999 511.999" style="enable-background:new 0 0 511.999 511.999;" xml:space="preserve">
<path style="fill:#80D0E1;" d="M323.573,299.827c-2.479-12.741-14.808-21.062-27.56-18.584l-81.013,15.759v-0.003l15.761-81.019
	c2.477-12.743-5.842-25.081-18.584-27.56c-12.741-2.473-25.081,5.84-27.562,18.584l-21.044,108.187l-33.331,33.331
	c-9.179,9.179-9.179,24.059-0.002,33.239l0.002,0.002c9.178,9.179,24.061,9.181,33.24,0l33.331-33.331l108.176-21.041
	C317.732,324.908,326.052,312.569,323.573,299.827z"/>
<g>
	<path style="fill:#48AEE2;" d="M323.573,299.827c-2.479-12.741-14.808-21.062-27.56-18.584l-81.013,15.759v-0.003l-84.761,84.761
		l0.002,0.002c9.178,9.179,24.061,9.181,33.24,0l33.331-33.331l108.176-21.041C317.732,324.908,326.052,312.569,323.573,299.827z"/>
	<path style="fill:#48AEE2;" d="M468.895,43.103c-57.422-57.422-150.945-57.519-208.458,0.002l-36.25,36.25
		c-57.248,57.238-57.691,150.768-0.002,208.458c57.395,57.395,150.922,57.549,208.461,0.002l36.25-36.25
		C526.161,194.308,526.57,100.777,468.895,43.103z M421.934,64.901c5.171,3.595,9.83,7.55,13.722,11.442
		c4.281,4.281,8.048,8.839,11.445,13.724l-36.111,36.111l-12.584-12.584l-12.581-12.581L421.934,64.901z M377.748,159.418
		L340.5,196.666l-12.584-12.584l-12.581-12.581l37.249-37.249l12.581,12.581L377.748,159.418z M364.666,46.987
		c2.781,0,5.561,0.138,8.333,0.367l-20.418,20.418L335.96,51.149C345.31,48.375,354.988,46.987,364.666,46.987z M257.426,112.595
		l36.25-36.25c0.168-0.168,0.343-0.321,0.512-0.487l25.153,25.153l-37.249,37.249l-25.153-25.153
		C257.107,112.938,257.259,112.763,257.426,112.595z M232.233,154.88l16.621,16.621l-20.418,20.418
		C227.409,179.494,228.661,166.916,232.233,154.88z M271.15,266.018c-5.163-3.59-9.723-7.445-13.724-11.445
		c-4.502-4.502-8.166-9.007-11.442-13.722l36.109-36.109l12.581,12.581l12.584,12.584L271.15,266.018z M320.082,283.566
		l20.418-20.418l16.621,16.621C345.085,283.339,332.507,284.591,320.082,283.566z M435.656,218.323l-36.25,36.25
		c-0.168,0.168-0.343,0.321-0.512,0.487l-25.153-25.153l37.249-37.249l25.153,25.153
		C435.977,217.98,435.824,218.156,435.656,218.323z M460.851,176.039l-16.621-16.621L464.648,139
		C465.673,151.423,464.421,164.001,460.851,176.039z"/>
</g>
<path style="fill:#3494C7;" d="M468.895,43.103l-33.24,33.24c4.281,4.281,8.048,8.839,11.445,13.724l-36.111,36.111l-12.584-12.584
	l-33.24,33.24l12.584,12.584L340.5,196.666l-12.584-12.584l-33.24,33.24l12.584,12.584l-36.109,36.111
	c-5.163-3.59-9.723-7.445-13.724-11.445l-33.24,33.24c57.395,57.395,150.922,57.549,208.461,0.002l36.25-36.25
	C526.161,194.308,526.57,100.777,468.895,43.103z M464.647,139c1.026,12.425-0.226,25.001-3.797,37.039l-16.621-16.621L464.647,139z
	 M320.082,283.566l20.418-20.418l16.621,16.621C345.085,283.339,332.507,284.591,320.082,283.566z M399.405,254.574
	c-0.168,0.168-0.343,0.321-0.512,0.487l-25.153-25.153l37.249-37.249l25.153,25.153c-0.166,0.168-0.32,0.345-0.487,0.512
	L399.405,254.574z"/>
<path style="fill:#48AEE2;" d="M161.795,374.708l-12.252-12.252l-12.249-12.251c-6.119-6.119-16.041-6.119-22.16,0L6.217,459.121
	c-8.288,8.288-8.288,21.726,0,30.014l8.324,8.324l8.325,8.325c8.288,8.288,21.726,8.288,30.014,0l108.916-108.916
	C167.915,390.749,167.915,380.827,161.795,374.708z"/>
<path style="fill:#3494C7;" d="M161.795,396.868c6.119-6.119,6.119-16.041,0-22.16l-12.252-12.252L14.539,497.458l8.325,8.325
	c8.288,8.288,21.726,8.288,30.014,0L161.795,396.868z"/>
<g>
</g>
<g>
</g>
<g>
</g>
<g>
</g>
<g>
</g>
<g>
</g>
<g>
</g>
<g>
</g>
<g>
</g>
<g>
</g>
<g>
</g>
<g>
</g>
<g>
</g>
<g>
</g>
<g>
</g>
</svg>
