<?xml version="1.0" encoding="iso-8859-1"?>
<!-- Generator: Adobe Illustrator 19.0.0, SVG Export Plug-In . SVG Version: 6.00 Build 0)  -->
<svg version="1.1" id="Layer_1" xmlns="http://www.w3.org/2000/svg" xmlns:xlink="http://www.w3.org/1999/xlink" x="0px" y="0px"
	 viewBox="0 0 459.994 459.994" style="enable-background:new 0 0 459.994 459.994;" xml:space="preserve">
<g>
	<path style="fill:#FF6161;" d="M230.004,0c-127.026,0-230,102.974-230,230c0,115.604,85.289,211.287,196.376,227.56
		l261.018-262.296C440.651,84.72,345.221,0,230.004,0z"/>
	<path style="fill:#FF0F27;" d="M392.638,392.634c53.773-53.773,75.339-127.546,64.728-197.373L361.29,99.185L99.66,360.815
		l96.723,96.723C265.879,467.75,339.152,446.12,392.638,392.634z"/>
	<path style="fill:#121149;" d="M230.337,414.667L210.863,219.93l204.474,9.737C415.337,331.679,332.35,414.667,230.337,414.667z"/>
	<path style="fill:#940030;" d="M230.337,44.667c102.013,0,185,82.987,185,185H210.863L230.337,44.667z"/>
	<path style="fill:#940030;" d="M230.337,229.667v185c-102.013,0-185-82.987-185-185l92.5-29.211L230.337,229.667z"/>
	<path style="fill:#C2001B;" d="M230.337,44.667v185h-185C45.337,127.654,128.324,44.667,230.337,44.667z"/>
	<path style="fill:#940030;" d="M230.337,384.667l-16.316-163.158l171.316,8.158C385.337,315.137,315.807,384.667,230.337,384.667z"
		/>
	<path style="fill:#C2001B;" d="M230.337,74.667c85.47,0,155,69.53,155,155H214.021L230.337,74.667z"/>
	<path style="fill:#C2001B;" d="M230.337,229.667v155c-85.47,0-155-69.53-155-155l77.5-24.474L230.337,229.667z"/>
	<path style="fill:#FF0F27;" d="M230.337,74.667v155h-155C75.337,144.196,144.866,74.667,230.337,74.667z"/>
	<path style="fill:#FFEDB5;" d="M230.337,113.328c27.9,0,60.52,32.62,60.52,60.52c0,42.71-50.99,59.08-50.99,84.2
		c0,10.14-10,37.96-10,37.96h-20v-37.96c0-19.41,14.14-33.02,26.61-45.04c14.72-14.19,24.38-24.58,24.38-39.16
		c0-16.83-13.69-30.52-30.52-30.52s-30.52,13.69-30.52,30.52h-20C170.132,137.167,202.437,113.328,230.337,113.328z"/>
	<path style="fill:#FFFFFF;" d="M300.857,173.848c0,32.67-21.17,53.07-36.63,67.97c-5.09,4.9-13.59,13.09-14.36,16.36v37.83h-20
		c0,0,0-27.82,0-37.96c0-25.12,50.99-41.49,50.99-84.2c0-27.9-22.62-50.52-50.52-50.52s-50.52,22.62-50.52,50.52h-20
		c0-38.88,31.64-70.52,70.52-70.52S300.857,134.968,300.857,173.848z"/>
	<circle style="fill:#FFFFFF;" cx="229.871" cy="336.005" r="20"/>
</g>
<g>
</g>
<g>
</g>
<g>
</g>
<g>
</g>
<g>
</g>
<g>
</g>
<g>
</g>
<g>
</g>
<g>
</g>
<g>
</g>
<g>
</g>
<g>
</g>
<g>
</g>
<g>
</g>
<g>
</g>
</svg>
