<?xml version="1.0" encoding="iso-8859-1"?>
<!-- Generator: Adobe Illustrator 19.0.0, SVG Export Plug-In . SVG Version: 6.00 Build 0)  -->
<svg version="1.1" id="Capa_1" xmlns="http://www.w3.org/2000/svg" xmlns:xlink="http://www.w3.org/1999/xlink" x="0px" y="0px"
	 viewBox="0 0 512 512" style="enable-background:new 0 0 512 512;" xml:space="preserve">
<path style="fill:#FF4F19;" d="M512,398.131v48.022H334.75l-104.876-60.895L0,251.789l31.51-48.303l89.788-137.639l13.063,14.938
	c12.762,14.557,52.543,53.847,82.941,60.634c4.542,1.013,8.722,1.785,12.572,2.346c22.948,3.408,33.826-0.231,35.65-0.933
	l12.792-8.551l7.178,13.975l17.855,29.244l15.68,25.695l10.096,16.542l15.69,25.705l19.5,31.931l2.386,3.92h0.04
	c8.852-0.792,22.537-1.384,38.067,0.201c22.728,2.336,49.405,9.344,70.639,27.219c22.246,18.728,34.437,45.596,36.292,79.963
	C511.92,391.765,512,394.923,512,398.131z"/>
<path style="fill:#EE2600;" d="M512,398.131v48.022H334.75l-104.876-60.895V143.765c22.948,3.408,33.826-0.231,35.65-0.933
	l12.792-8.551l7.178,13.975l17.855,29.244l15.68,25.695l10.096,16.542l15.69,25.705l19.5,31.931l2.386,3.92h0.04
	c8.852-0.792,22.537-1.384,38.067,0.201c22.728,2.336,49.405,9.344,70.639,27.219c22.246,18.728,34.437,45.596,36.292,79.963
	C511.92,391.765,512,394.923,512,398.131z"/>
<g>
	<polygon style="fill:#EDEDED;" points="319.03,203.196 306.518,211.557 293.996,219.918 263.7,240.16 246.997,215.146 
		278.317,194.223 290.828,185.862 303.35,177.501 	"/>
	<polygon style="fill:#EDEDED;" points="344.815,245.443 332.364,253.895 319.892,262.346 288.693,283.5 271.81,258.597 
		304.202,236.631 316.664,228.179 329.126,219.738 	"/>
</g>
<path style="fill:#C8C6CD;" d="M336.738,389.85h175.051c-0.02-0.389-0.027-0.786-0.05-1.173
	c-1.855-34.367-14.046-61.236-36.292-79.963c-21.234-17.875-47.912-24.883-70.639-27.219c-15.529-1.584-29.214-0.992-38.067-0.201
	c-1.474,1.755-2.938,3.589-4.391,5.504c-0.331,0.461-0.692,0.922-1.023,1.394c-3.068,4.16-6.166,8.822-9.073,13.995
	c-9.995,17.655-18.106,41.195-17.123,70.399C335.318,378.139,335.844,383.893,336.738,389.85z"/>
<path style="fill:#FFB84D;" d="M512,398.131v48.022H334.75l-104.876-60.895L0,251.789l31.51-48.303l13.063,7.509l13.053,7.509
	l172.247,99.082l98.119,56.433v0.01l25.475,14.647h158.272C511.92,391.765,512,394.923,512,398.131z"/>
<path style="fill:#FF9A00;" d="M512,398.131v48.022H334.75l-104.876-60.895v-67.672l98.119,56.433v0.01l25.475,14.647H511.74
	C511.92,391.765,512,394.923,512,398.131z"/>
<g>
</g>
<g>
</g>
<g>
</g>
<g>
</g>
<g>
</g>
<g>
</g>
<g>
</g>
<g>
</g>
<g>
</g>
<g>
</g>
<g>
</g>
<g>
</g>
<g>
</g>
<g>
</g>
<g>
</g>
</svg>
